# xmcd
# 
# Track frame offsets:
#     150
#     11957
#     26725
#     37630
#     70575
# 
# Disc length: 4440
# 
# Revision: 2
# Processed by: cddbd v1.5.2PL0 Copyright (c) Steve Scherf et al.
# Submitted via: BonkEnc v1.0.8
# 
DISCID=33115605
DTITLE=SHAKA LABBITS - Pivot
DYEAR=2003
DGENRE=JPop
TTITLE0=Pivot
TTITLE1=オレンジライオン
TTITLE2=THAT THING YOU DO !
TTITLE3=head-scissors (another take)
TTITLE4=data
EXTD=YEAR: 2003
EXTT0=
EXTT1=
EXTT2=
EXTT3=
EXTT4=
PLAYORDER=
